<svg width="16" height="16" viewBox="0 0 16 16" fill="none" xmlns="http://www.w3.org/2000/svg">
<g clip-path="url(#clip0_639426_624)">
<path d="M15.9843 4.70398C15.9468 3.85384 15.8093 3.26938 15.6124 2.76293C15.4092 2.22535 15.0967 1.74405 14.6872 1.34395C14.2871 0.937622 13.8026 0.621887 13.2712 0.421896C12.7619 0.224959 12.1805 0.0874805 11.3303 0.0499976C10.4738 0.00934021 10.2019 -6.10352e-05 8.02962 -6.10352e-05C5.85733 -6.10352e-05 5.58542 0.00934021 4.73211 0.0468231C3.88197 0.084306 3.2975 0.221906 2.79118 0.418722C2.25348 0.621887 1.77218 0.934448 1.37208 1.34395C0.965751 1.74405 0.650138 2.22852 0.450026 2.75988C0.253088 3.26938 0.11561 3.85067 0.0781271 4.70081C0.0374698 5.5573 0.0280685 5.8292 0.0280685 8.0015C0.0280685 10.1738 0.0374698 10.4457 0.0749527 11.299C0.112436 12.1492 0.250036 12.7336 0.446973 13.2401C0.650138 13.7777 0.965751 14.259 1.37208 14.6591C1.77218 15.0654 2.25665 15.3811 2.788 15.5811C3.2975 15.778 3.87879 15.9155 4.72906 15.953C5.58225 15.9906 5.85427 15.9999 8.02657 15.9999C10.1989 15.9999 10.4708 15.9906 11.3241 15.953C12.1742 15.9155 12.7587 15.778 13.265 15.5811C14.3403 15.1654 15.1904 14.3152 15.6062 13.2401C15.803 12.7306 15.9406 12.1492 15.9781 11.299C16.0156 10.4457 16.025 10.1738 16.025 8.0015C16.025 5.8292 16.0218 5.5573 15.9843 4.70398ZM14.5435 11.2365C14.509 12.0179 14.3778 12.4399 14.2684 12.7212C13.9995 13.4182 13.4463 13.9714 12.7493 14.2403C12.468 14.3497 12.043 14.4809 11.2646 14.5152C10.4207 14.5528 10.1676 14.5621 8.0328 14.5621C5.89798 14.5621 5.64171 14.5528 4.80085 14.5152C4.01944 14.4809 3.59749 14.3497 3.31618 14.2403C2.96931 14.1121 2.65358 13.9089 2.3973 13.6432C2.13163 13.3838 1.92846 13.0712 1.80026 12.7243C1.69087 12.443 1.55962 12.0179 1.52531 11.2397C1.4877 10.3958 1.47842 10.1425 1.47842 8.00773C1.47842 5.87291 1.4877 5.61664 1.52531 4.7759C1.55962 3.99449 1.69087 3.57254 1.80026 3.29123C1.92846 2.94424 2.13163 2.62863 2.40048 2.37223C2.65981 2.10655 2.97237 1.90339 3.31936 1.77531C3.60066 1.66591 4.02579 1.53466 4.80402 1.50023C5.64794 1.46275 5.90116 1.45335 8.03585 1.45335C10.1738 1.45335 10.4269 1.46275 11.2678 1.50023C12.0492 1.53466 12.4712 1.66591 12.7525 1.77531C13.0993 1.90339 13.4151 2.10655 13.6713 2.37223C13.937 2.63168 14.1402 2.94424 14.2684 3.29123C14.3778 3.57254 14.509 3.99755 14.5435 4.7759C14.5809 5.61981 14.5903 5.87291 14.5903 8.00773C14.5903 10.1425 14.5809 10.3926 14.5435 11.2365Z" fill="#F4F4FD"/>
<path d="M8.02964 3.8913C5.76052 3.8913 3.91946 5.73223 3.91946 8.00147C3.91946 10.2707 5.76052 12.1117 8.02964 12.1117C10.2989 12.1117 12.1398 10.2707 12.1398 8.00147C12.1398 5.73223 10.2989 3.8913 8.02964 3.8913ZM8.02964 10.6676C6.55755 10.6676 5.36347 9.47368 5.36347 8.00147C5.36347 6.52926 6.55755 5.3353 8.02964 5.3353C9.50185 5.3353 10.6958 6.52926 10.6958 8.00147C10.6958 9.47368 9.50185 10.6676 8.02964 10.6676Z" fill="#F4F4FD"/>
<path d="M13.262 3.72883C13.262 4.25872 12.8323 4.68837 12.3023 4.68837C11.7724 4.68837 11.3428 4.25872 11.3428 3.72883C11.3428 3.19882 11.7724 2.76929 12.3023 2.76929C12.8323 2.76929 13.262 3.19882 13.262 3.72883Z" fill="#F4F4FD"/>
</g>
<defs>
<clipPath id="clip0_639426_624">
<rect width="16" height="16" fill="white"/>
</clipPath>
</defs>
</svg>
